<?xml version="1.0" encoding="UTF-8"?>
<svg version="1.1" xmlns="http://www.w3.org/2000/svg" width="200" height="200">
<path d="M0 0 C1.12728516 0.77150391 1.12728516 0.77150391 2.27734375 1.55859375 C2.84582031 2.03425781 3.41429687 2.50992188 4 3 C4 3.66 4 4.32 4 5 C0.98447547 6.20912336 -1.7402406 6.93218925 -5 7 C-7.71020616 5.75835737 -10.00901191 4.201886 -12.48046875 2.5390625 C-20.03999077 -2.07869204 -30.45259805 -1.91714379 -39 -1 C-49.87926539 2.01770099 -58.27094537 7.73629775 -64.45703125 17.1640625 C-69.94163345 27.2446225 -71.79306648 38.00782963 -68.8125 49.125 C-66.32404181 56.47354553 -62.93654395 62.89181102 -57 68 C-56.43667969 68.49242188 -55.87335938 68.98484375 -55.29296875 69.4921875 C-45.32688539 77.65179139 -34.49764622 79.22451685 -22 78 C-11.9385231 75.86918597 -3.14007247 70.35704859 2.9375 62.0625 C8.78482613 52.9957049 10.72969456 43.71324284 10 33 C9.68749465 31.57356428 9.33582155 30.15489089 8.9375 28.75 C7.61560362 23.46241448 8.29516193 19.68838598 11 15 C11.66 15 12.32 15 13 15 C13.64910154 16.58199631 14.29414694 18.16565724 14.9375 19.75 C15.29714844 20.63171875 15.65679687 21.5134375 16.02734375 22.421875 C20.00959131 32.97722998 19.44550744 46.97893195 15.328125 57.359375 C8.85723348 70.2250299 -1.07195038 80.07989805 -14.8125 84.8125 C-28.01497713 88.89957078 -41.26670917 87.57319151 -53.625 81.4375 C-64.94033239 74.82464341 -74.14991395 63.8917184 -77.52734375 51.08984375 C-79.7408085 36.62000391 -78.63920422 22.3564876 -69.80859375 10.22265625 C-62.62128107 1.38986809 -55.7420226 -4.0255906 -45 -8 C-44.30261719 -8.26554687 -43.60523438 -8.53109375 -42.88671875 -8.8046875 C-27.94244305 -13.47677369 -12.40115649 -8.56433459 0 0 Z " fill="#ED233D" transform="translate(130,31)"/>
<path d="M0 0 C1.87323485 0.6998954 3.72326745 1.46459677 5.546875 2.28515625 C6.55621094 2.73310547 7.56554687 3.18105469 8.60546875 3.64257812 C10.16201172 4.34543945 10.16201172 4.34543945 11.75 5.0625 C13.82669132 5.99408797 15.90474958 6.92263673 17.984375 7.84765625 C18.89928711 8.26023682 19.81419922 8.67281738 20.75683594 9.09790039 C22.9063017 10.12437121 22.9063017 10.12437121 25 10 C23.46942742 14.65628451 19.67573816 16.6416107 15.796875 19.23828125 C15.08146545 19.72330612 14.36605591 20.20833099 13.62896729 20.70805359 C12.11574863 21.72889024 10.59919685 22.74480103 9.07958984 23.75610352 C6.75963716 25.30606142 4.46000802 26.88331128 2.16015625 28.46289062 C0.68605511 29.45225029 -0.78917001 30.43993775 -2.265625 31.42578125 C-2.9502179 31.89961746 -3.63481079 32.37345367 -4.34014893 32.86164856 C-7.50455233 34.93141835 -9.23978548 36.01416922 -13.09130859 35.94238281 C-16.23014298 34.9254363 -19.24211875 33.80166172 -22.2734375 32.49609375 C-24.00400391 31.75649414 -24.00400391 31.75649414 -25.76953125 31.00195312 C-26.95933594 30.48568359 -28.14914063 29.96941406 -29.375 29.4375 C-30.58800781 28.91736328 -31.80101563 28.39722656 -33.05078125 27.86132812 C-36.03643633 26.58008244 -39.01933688 25.29280626 -42 24 C-38.64619092 20.3543029 -34.91019824 17.71642365 -30.8203125 14.98046875 C-30.12992889 14.51763992 -29.43954529 14.0548111 -28.72824097 13.57795715 C-27.27266092 12.60624513 -25.81519171 11.63735772 -24.35595703 10.67114258 C-22.12885763 9.19006542 -19.91830814 7.68620305 -17.70703125 6.18164062 C-16.28742396 5.23812884 -14.86688122 4.29602269 -13.4453125 3.35546875 C-12.46064499 2.6775251 -12.46064499 2.6775251 -11.45608521 1.98588562 C-7.21449813 -0.77016881 -4.84679001 -1.53921106 0 0 Z " fill="#FA0725" transform="translate(112,68)"/>
<path d="M0 0 C0.29840252 3.21848436 0.52515281 6.40926843 0.6484375 9.640625 C0.80879445 12.7986456 1.3836563 15.56575895 2.2265625 18.609375 C3.44916651 24.28960471 3.94394814 28.78950472 1 34 C-7.93834244 43.25606317 -20.68068711 50.08320217 -32 56 C-32.66 56 -33.32 56 -34 56 C-34.33 56.66 -34.66 57.32 -35 58 C-38.21728921 53.17406618 -37.64351218 47.62085842 -37.75512695 41.96850586 C-37.79315921 40.53930203 -37.85443719 39.11051489 -37.93969727 37.68334961 C-38.63394727 25.95718172 -38.63394727 25.95718172 -34.93530273 21.52685547 C-32.06189753 19.41628052 -29.12509317 17.7138221 -26 16 C-23.90321401 14.59082997 -21.81860512 13.1633843 -19.74609375 11.71875 C-17.64484274 10.3100901 -15.54196989 8.9038465 -13.4375 7.5 C-11.82004883 6.40945312 -11.82004883 6.40945312 -10.16992188 5.296875 C-8.62981445 4.26820312 -8.62981445 4.26820312 -7.05859375 3.21875 C-6.13361084 2.59935547 -5.20862793 1.97996094 -4.25561523 1.34179688 C-2 0 -2 0 0 0 Z M-10.1875 9.8125 C-15.64065462 13.75268739 -21.17394927 17.56085848 -26.72924805 21.35473633 C-30.01511641 23.48936815 -30.01511641 23.48936815 -33 26 C-33.09872903 27.34476387 -33.13079159 28.69458706 -33.1328125 30.04296875 C-33.13410156 30.86990234 -33.13539062 31.69683594 -33.13671875 32.54882812 C-33.13285156 33.41958984 -33.12898438 34.29035156 -33.125 35.1875 C-33.12886719 36.03892578 -33.13273437 36.89035156 -33.13671875 37.76757812 C-33.12972067 42.29183604 -32.91805976 46.54813878 -32 51 C-25.06146655 46.65959582 -18.20443224 42.19711914 -11.375 37.6875 C-10.56885254 37.15995117 -9.76270508 36.63240234 -8.93212891 36.08886719 C-8.17851074 35.5890332 -7.42489258 35.08919922 -6.6484375 34.57421875 C-5.63015869 33.90265747 -5.63015869 33.90265747 -4.59130859 33.2175293 C-2.85336209 32.07222839 -2.85336209 32.07222839 -2 30 C-1.98380773 28.25742019 -2.03502367 26.51396573 -2.12109375 24.7734375 C-2.16943359 23.7421875 -2.21777344 22.7109375 -2.26757812 21.6484375 C-2.32365234 20.56820312 -2.37972656 19.48796875 -2.4375 18.375 C-2.51581055 16.74304688 -2.51581055 16.74304688 -2.59570312 15.078125 C-2.72562775 12.3851419 -2.86060162 9.69250664 -3 7 C-6.58679852 7 -7.34595861 7.72413825 -10.1875 9.8125 Z " fill="#DF4E64" transform="translate(105,32)"/>
<path d="M0 0 C-1.25422685 3.98792946 -2.71515581 7.66949404 -4.6015625 11.3984375 C-5.09140625 12.37167969 -5.58125 13.34492187 -6.0859375 14.34765625 C-6.59382813 15.34667969 -7.10171875 16.34570312 -7.625 17.375 C-8.140625 18.39722656 -8.65625 19.41945313 -9.1875 20.47265625 C-10.45471873 22.98362669 -11.72564556 25.49264561 -13 28 C-13.66 28 -14.32 28 -15 28 C-15.24492187 27.13117187 -15.48984375 26.26234375 -15.7421875 25.3671875 C-17.81856538 18.9662157 -19.34071889 14.68586255 -25.3125 11.1875 C-26.8560793 10.41909045 -28.41324415 9.67475637 -30 9 C-29 7 -29 7 -26.54736328 6.13037109 C-25.48243652 5.84758301 -24.41750977 5.56479492 -23.3203125 5.2734375 C-22.16402344 4.9640625 -21.00773437 4.6546875 -19.81640625 4.3359375 C-18.59824219 4.01882812 -17.38007812 3.70171875 -16.125 3.375 C-14.91457031 3.05015625 -13.70414063 2.7253125 -12.45703125 2.390625 C-3.42689732 0 -3.42689732 0 0 0 Z " fill="#F3213D" transform="translate(145,35)"/>
<path d="M0 0 C1.35439668 2.70879335 1.06501451 5.00933268 1 8 C0.195625 8.2475 -0.60875 8.495 -1.4375 8.75 C-4.171081 9.72238859 -4.171081 9.72238859 -4.8125 12.125 C-4.874375 12.74375 -4.93625 13.3625 -5 14 C-5.66 14 -6.32 14 -7 14 C-7 14.66 -7 15.32 -7 16 C-7.66 16 -8.32 16 -9 16 C-9.185625 17.7634375 -9.185625 17.7634375 -9.375 19.5625 C-9.66053146 22.2750489 -10.18493012 24.62041072 -10.96875 27.25 C-12.08828336 31.32103038 -12.65793981 35.25310006 -13.125 39.4375 C-13.25455078 40.53481445 -13.25455078 40.53481445 -13.38671875 41.65429688 C-13.59628393 43.43560094 -13.79887868 45.21772281 -14 47 C-14.33 47 -14.66 47 -15 47 C-18.68390141 37.6792856 -18.57040095 25.77824591 -15 16.4375 C-11.71282115 9.70393421 -7.04685375 3.04474305 0 0 Z " fill="#FA021F" transform="translate(70,33)"/>
<path d="M0 0 C0.66 0 1.32 0 2 0 C2.64910154 1.58199631 3.29414694 3.16565724 3.9375 4.75 C4.29714844 5.63171875 4.65679687 6.5134375 5.02734375 7.421875 C7.08900094 12.88650851 7.21542176 17.83314512 7.25 23.625 C7.270625 24.49640625 7.29125 25.3678125 7.3125 26.265625 C7.31765625 27.09835938 7.3228125 27.93109375 7.328125 28.7890625 C7.34214355 29.92915771 7.34214355 29.92915771 7.35644531 31.09228516 C7.23881836 31.72183105 7.12119141 32.35137695 7 33 C6.01 33.66 5.02 34.32 4 35 C3.34 33.35 2.68 31.7 2 30 C1.34 30 0.68 30 0 30 C0.33 30.99 0.66 31.98 1 33 C0.72428861 35.00875442 0.39764263 37.01178687 0 39 C-0.66 39 -1.32 39 -2 39 C-2 39.66 -2 40.32 -2 41 C-2.66 41 -3.32 41 -4 41 C-3.7834375 40.17757812 -3.566875 39.35515625 -3.34375 38.5078125 C-1.22642694 30.0189154 0.30074102 22.31270206 -2.0625 13.75 C-3.38439638 8.46241448 -2.70483807 4.68838598 0 0 Z " fill="#EA203A" transform="translate(141,46)"/>
<path d="M0 0 C0 2.31 0 4.62 0 7 C-1.65 7.66 -3.3 8.32 -5 9 C-4.87625 9.886875 -4.7525 10.77375 -4.625 11.6875 C-5.0340076 15.30040049 -5.26302548 15.66242935 -7.875 17.875 C-11 20 -11 20 -13 20 C-13 18.68 -13 17.36 -13 16 C-13.55429688 16.3609375 -14.10859375 16.721875 -14.6796875 17.09375 C-15.40414062 17.5578125 -16.12859375 18.021875 -16.875 18.5 C-17.59429687 18.9640625 -18.31359375 19.428125 -19.0546875 19.90625 C-21 21 -21 21 -23 21 C-24.29221592 17.12335223 -24.74744182 15.07695536 -24 11 C-16.48349515 4 -16.48349515 4 -12 4 C-11.20046862 7.28696233 -10.90341064 8.71023192 -12 12 C-10.68 11.67 -9.36 11.34 -8 11 C-8.12375 10.113125 -8.2475 9.22625 -8.375 8.3125 C-7.9659924 4.69959951 -7.73697452 4.33757065 -5.125 2.125 C-2 0 -2 0 0 0 Z " fill="#F46B7A" transform="translate(99,50)"/>
<path d="M0 0 C0.8146875 0.00644531 1.629375 0.01289063 2.46875 0.01953125 C10.80261345 0.42716588 19.07283412 5.27721915 25 11 C25 11.66 25 12.32 25 13 C21.9806824 14.21064426 19.26407961 14.93759848 16 15 C13.1229097 13.76400862 10.73389249 12.26303336 8.1640625 10.48046875 C5.97958234 8.84060583 5.97958234 8.84060583 3 8 C3 7.34 3 6.68 3 6 C-1.099361 5.0672582 -5.12043288 4.71174738 -9.3125 4.4375 C-10.56675781 4.35371094 -11.82101563 4.26992188 -13.11328125 4.18359375 C-14.54220703 4.09271484 -14.54220703 4.09271484 -16 4 C-16 3.34 -16 2.68 -16 2 C-11.11243017 -1.25837989 -5.72336892 -0.19389918 0 0 Z " fill="#F50323" transform="translate(109,23)"/>
<path d="M0 0 C0.66 0.33 1.32 0.66 2 1 C0.71937515 2.7074998 -0.61767557 4.37373596 -2 6 C-2.66 6 -3.32 6 -4 6 C-4 6.66 -4 7.32 -4 8 C-2.68 8 -1.36 8 0 8 C-0.1875 9.8359375 -0.1875 9.8359375 -1 12 C-11.38190017 18.7111569 -24.42266872 20.6881437 -36.43359375 18.32421875 C-39.31071149 17.60917535 -42.15898786 16.84625894 -45 16 C-45 15.67 -45 15.34 -45 15 C-44.16082031 15.10828125 -44.16082031 15.10828125 -43.3046875 15.21875 C-35.85917345 16.08061015 -28.48827512 16.0971102 -21 16 C-21.33 15.34 -21.66 14.68 -22 14 C-21.34 13.67 -20.68 13.34 -20 13 C-20.92941406 13.03480469 -21.85882813 13.06960937 -22.81640625 13.10546875 C-35.09490334 13.37434095 -35.09490334 13.37434095 -41 10 C-39 9 -39 9 -37.34765625 9.41796875 C-27.76825456 11.79289529 -16.65340055 10.61328301 -8 6 C-5.18278503 4.15780201 -2.55196305 2.19366451 0 0 Z " fill="#EB364D" transform="translate(127,99)"/>
<path d="M0 0 C1.93166016 0.01740234 1.93166016 0.01740234 3.90234375 0.03515625 C5.19269531 0.04417969 6.48304687 0.05320312 7.8125 0.0625 C8.81152344 0.07410156 9.81054688 0.08570312 10.83984375 0.09765625 C11.82984375 2.07765625 12.81984375 4.05765625 13.83984375 6.09765625 C14.49984375 4.11765625 15.15984375 2.13765625 15.83984375 0.09765625 C17.48984375 0.09765625 19.13984375 0.09765625 20.83984375 0.09765625 C19.8112159 5.54333311 18.59369591 10.21582742 15.83984375 15.09765625 C14.18984375 15.09765625 12.53984375 15.09765625 10.83984375 15.09765625 C9.18984375 11.46765625 7.53984375 7.83765625 5.83984375 4.09765625 C4.18984375 4.09765625 2.53984375 4.09765625 0.83984375 4.09765625 C0.83984375 7.72765625 0.83984375 11.35765625 0.83984375 15.09765625 C-0.81015625 15.09765625 -2.46015625 15.09765625 -4.16015625 15.09765625 C-4.18701037 12.78521833 -4.20648466 10.47269355 -4.22265625 8.16015625 C-4.23425781 6.87238281 -4.24585937 5.58460938 -4.2578125 4.2578125 C-4.13018023 0.12763227 -4.13018023 0.12763227 0 0 Z " fill="#363734" transform="translate(116.16015625,125.90234375)"/>
<path d="M0 0 C1.65 0 3.3 0 5 0 C5.66 1.65 6.32 3.3 7 5 C7.66 3.35 8.32 1.7 9 0 C10.32 0 11.64 0 13 0 C13.33 1.65 13.66 3.3 14 5 C14.66 3.35 15.32 1.7 16 0 C17.65 0 19.3 0 21 0 C20.43179252 5.45479185 19.05362055 9.91059256 17 15 C15.35 14.67 13.7 14.34 12 14 C11.67 13.01 11.34 12.02 11 11 C10.34 12.32 9.68 13.64 9 15 C7.35 15 5.7 15 4 15 C3.32779649 13.06441401 2.66241923 11.12645628 2 9.1875 C1.62875 8.10855469 1.2575 7.02960938 0.875 5.91796875 C0 3 0 3 0 0 Z " fill="#272A28" transform="translate(159,126)"/>
<path d="M0 0 C0 1.65 0 3.3 0 5 C-0.54672363 5.28915283 -1.09344727 5.57830566 -1.65673828 5.8762207 C-7.35449987 8.9560754 -12.62819861 12.39762292 -17.875 16.1875 C-19.35140155 17.2437146 -20.82795768 18.29971317 -22.3046875 19.35546875 C-23.2635083 20.04612427 -23.2635083 20.04612427 -24.24169922 20.75073242 C-25.80737582 21.86314108 -27.4019443 22.93462954 -29 24 C-29.36530232 27.12557959 -29.36530232 27.12557959 -29.1875 30.625 C-29.16042969 31.81351563 -29.13335937 33.00203125 -29.10546875 34.2265625 C-29.07066406 35.14179687 -29.03585938 36.05703125 -29 37 C-29.66 36.67 -30.32 36.34 -31 36 C-31 42.6 -31 49.2 -31 56 C-35.56416897 51.43583103 -34.74506371 46.10858082 -34.83056641 39.96850586 C-34.87458569 37.83260319 -34.99318706 35.70895566 -35.11328125 33.57617188 C-35.42197435 23.68097624 -35.42197435 23.68097624 -31.87817383 19.49169922 C-29.02011523 17.39492419 -26.11081722 15.69612212 -23 14 C-21.12191554 12.73669929 -19.25564844 11.45563126 -17.40234375 10.15625 C-15.58232893 8.93511229 -13.7607186 7.71634913 -11.9375 6.5 C-11.00228516 5.86835937 -10.06707031 5.23671875 -9.10351562 4.5859375 C-8.21212891 3.99039063 -7.32074219 3.39484375 -6.40234375 2.78125 C-5.60304443 2.24564453 -4.80374512 1.71003906 -3.98022461 1.15820312 C-2 0 -2 0 0 0 Z " fill="#E2586B" transform="translate(102,34)"/>
<path d="M0 0 C1.32 0.33 2.64 0.66 4 1 C3.61328125 1.42667969 3.2265625 1.85335937 2.828125 2.29296875 C-3.82097451 10.27517979 -6.73966403 20.01029532 -6.33203125 30.3671875 C-5.77639626 34.77304614 -4.49132044 38.8315775 -3 43 C-2.608125 44.19625 -2.21625 45.3925 -1.8125 46.625 C-1.544375 47.40875 -1.27625 48.1925 -1 49 C-1.66 49.66 -2.32 50.32 -3 51 C-3 49.68 -3 48.36 -3 47 C-3.66 47 -4.32 47 -5 47 C-5.495 45.515 -5.495 45.515 -6 44 C-6.66 44 -7.32 44 -8 44 C-8.33 44.99 -8.66 45.98 -9 47 C-8.34 47 -7.68 47 -7 47 C-5.74335022 49.90600261 -5 51.79604584 -5 55 C-10.41135384 50.74822198 -12.60390107 43.55415905 -14 37 C-14.07818636 35.48604304 -14.10789909 33.96906493 -14.09765625 32.453125 C-14.09443359 31.60878906 -14.09121094 30.76445313 -14.08789062 29.89453125 C-14.07951172 29.02183594 -14.07113281 28.14914063 -14.0625 27.25 C-14.05798828 26.36183594 -14.05347656 25.47367188 -14.04882812 24.55859375 C-14.037074 22.37232671 -14.02064249 20.18619821 -14 18 C-13.67 18 -13.34 18 -13 18 C-12.95101562 18.98742187 -12.90203125 19.97484375 -12.8515625 20.9921875 C-12.77679688 22.27351563 -12.70203125 23.55484375 -12.625 24.875 C-12.55539063 26.15117188 -12.48578125 27.42734375 -12.4140625 28.7421875 C-12.32758894 32.08061699 -12.32758894 32.08061699 -10 34 C-9.89042969 32.97261719 -9.78085937 31.94523437 -9.66796875 30.88671875 C-8.74622555 22.68815988 -7.50907274 14.89521555 -5 7 C-4.34 7 -3.68 7 -3 7 C-3 6.34 -3 5.68 -3 5 C-2.34 5 -1.68 5 -1 5 C-0.67 3.35 -0.34 1.7 0 0 Z " fill="#E73048" transform="translate(66,42)"/>
<path d="M0 0 C4.25125889 0.03816211 7.18893113 1.18893113 10.25 4.25 C10.125 7.625 10.125 7.625 9.25 11.25 C5.98106489 13.98883753 4.5839145 14.25 0.25 14.25 C0.25 16.23 0.25 18.21 0.25 20.25 C-1.4 20.25 -3.05 20.25 -4.75 20.25 C-4.77888514 17.10418577 -4.79675923 13.95840531 -4.8125 10.8125 C-4.82087891 9.91466797 -4.82925781 9.01683594 -4.83789062 8.09179688 C-4.84111328 7.23779297 -4.84433594 6.38378906 -4.84765625 5.50390625 C-4.85551147 4.31776733 -4.85551147 4.31776733 -4.86352539 3.10766602 C-4.65068849 -0.37507805 -3.6290934 0.24193956 0 0 Z M0.25 5.25 C0.25 6.57 0.25 7.89 0.25 9.25 C1.9 8.92 3.55 8.59 5.25 8.25 C4.92 7.26 4.59 6.27 4.25 5.25 C2.93 5.25 1.61 5.25 0.25 5.25 Z " fill="#1F2321" transform="translate(24.75,120.75)"/>
<path d="M0 0 C1.875 1.125 1.875 1.125 3 3 C3.6875 6.1875 3.6875 6.1875 4 9 C1.03 9 -1.94 9 -5 9 C-5 9.66 -5 10.32 -5 11 C-2.69 11 -0.38 11 2 11 C2.33 12.32 2.66 13.64 3 15 C-3.20081967 16.33743169 -3.20081967 16.33743169 -6.8125 14.8125 C-9.14036617 12.8836966 -10.17225611 11.89710361 -11 9 C-10.81225297 5.93346518 -10.46117551 3.76862586 -8.875 1.125 C-5.87553214 -0.67468071 -3.40613332 -0.36494286 0 0 Z M-5 4 C-5 4.66 -5 5.32 -5 6 C-3.68 5.67 -2.36 5.34 -1 5 C-2.32 4.67 -3.64 4.34 -5 4 Z " fill="#1D1E1B" transform="translate(155,126)"/>
<path d="M0 0 C0.66 0 1.32 0 2 0 C2 0.66 2 1.32 2 2 C3.1446875 1.7525 3.1446875 1.7525 4.3125 1.5 C7.50925827 0.90525428 9.35534604 0.68638456 12.3125 2.125 C14.99812513 3.30225706 14.99812513 3.30225706 17.625 2.0625 C22.51864863 0.52190691 26.97514415 1.33836418 32 2 C31.67 3.65 31.34 5.3 31 7 C26.25 7.125 26.25 7.125 24 6 C23.4225 6.144375 22.845 6.28875 22.25 6.4375 C19.38397415 7.15400646 16.94197948 7.2558243 14 7 C13.34 6.01 12.68 5.02 12 4 C11.67 4.99 11.34 5.98 11 7 C10.34 7 9.68 7 9 7 C8.67 6.67 8.34 6.34 8 6 C8 6.33 8 6.66 8 7 C3.05 7 -1.9 7 -7 7 C-7 5.35 -7 3.7 -7 2 C-5.34385343 1.61781233 -3.67542976 1.28604898 -2 1 C-1.67 1.33 -1.34 1.66 -1 2 C-0.67 1.34 -0.34 0.68 0 0 Z M2 3 C2 3.99 2 4.98 2 6 C2.66 5.67 3.32 5.34 4 5 C4 4.34 4 3.68 4 3 C3.34 3 2.68 3 2 3 Z " fill="#7F8686" transform="translate(102,144)"/>
<path d="M0 0 C3.4375 0.5 3.4375 0.5 5.375 1.625 C6.88234863 4.285027 6.63736253 6.50206205 6.4375 9.5 C3.7975 9.5 1.1575 9.5 -1.5625 9.5 C-1.5625 10.16 -1.5625 10.82 -1.5625 11.5 C0.7475 11.5 3.0575 11.5 5.4375 11.5 C5.4375 12.82 5.4375 14.14 5.4375 15.5 C-0.80409797 16.84622701 -0.80409797 16.84622701 -4.4375 15.1875 C-6.5625 13.5 -6.5625 13.5 -7.5625 11.5 C-7.9729525 7.80592747 -7.79017266 5.9189177 -6 2.625 C-3.5625 0.5 -3.5625 0.5 0 0 Z M-1.5625 4.5 C-1.8925 5.16 -2.2225 5.82 -2.5625 6.5 C-0.9125 6.5 0.7375 6.5 2.4375 6.5 C2.1075 5.84 1.7775 5.18 1.4375 4.5 C0.4475 4.5 -0.5425 4.5 -1.5625 4.5 Z " fill="#494A49" transform="translate(103.5625,125.5)"/>
<path d="M0 0 C2.97118368 2.59026269 3.88008526 4.16059685 4.4375 8.0625 C3.94239068 11.38680542 3.49664238 12.75302186 1 15 C-2.65878362 16.19308162 -4.29997692 16.32667744 -7.8125 14.6875 C-10 13 -10 13 -11 11 C-11.35519903 7.16385043 -11.54724594 4.85370366 -9.4375 1.5625 C-6.03280512 -0.61999672 -3.96569988 -0.63734462 0 0 Z M-5 4 C-6.29633621 5.06645115 -6.29633621 5.06645115 -6.0625 7.5625 C-6.041875 8.366875 -6.02125 9.17125 -6 10 C-4.05396726 10.59070014 -4.05396726 10.59070014 -2 11 C-0.70366379 9.93354885 -0.70366379 9.93354885 -0.9375 7.4375 C-0.958125 6.633125 -0.97875 5.82875 -1 5 C-2.94603274 4.40929986 -2.94603274 4.40929986 -5 4 Z " fill="#3B3D3B" transform="translate(57,126)"/>
<path d="M0 0 C0.88429688 -0.03738281 1.76859375 -0.07476562 2.6796875 -0.11328125 C5.125 0.3125 5.125 0.3125 6.93359375 1.97265625 C8.40634517 4.86504347 8.42781532 6.83367095 8.3125 10.0625 C8.28542969 11.04734375 8.25835937 12.0321875 8.23046875 13.046875 C8.19566406 13.79453125 8.16085938 14.5421875 8.125 15.3125 C6.475 15.3125 4.825 15.3125 3.125 15.3125 C2.795 12.0125 2.465 8.7125 2.125 5.3125 C1.135 4.9825 0.145 4.6525 -0.875 4.3125 C-0.875 7.9425 -0.875 11.5725 -0.875 15.3125 C-2.525 15.3125 -4.175 15.3125 -5.875 15.3125 C-5.90185412 13.00006208 -5.92132841 10.6875373 -5.9375 8.375 C-5.94910156 7.08722656 -5.96070312 5.79945313 -5.97265625 4.47265625 C-5.82149135 -0.41903976 -4.4766239 0.12326935 0 0 Z " fill="#0E0F0F" transform="translate(75.875,125.6875)"/>
<path d="M0 0 C0.56847656 0.19335938 1.13695313 0.38671875 1.72265625 0.5859375 C6.45364938 2.18136423 11.18794425 3.66900586 16 5 C14.48616453 9.0049853 12.14196613 10.56559654 8.625 12.890625 C7.55765625 13.59960938 6.4903125 14.30859375 5.390625 15.0390625 C4.83439453 15.40161133 4.27816406 15.76416016 3.70507812 16.13769531 C1.99926461 17.25047973 0.30384038 18.37784167 -1.390625 19.5078125 C-9.71943681 25 -9.71943681 25 -12 25 C-12 24.01 -12 23.02 -12 22 C-11.01 21.67 -10.02 21.34 -9 21 C-8.34 20.01 -7.68 19.02 -7 18 C-6.01 18 -5.02 18 -4 18 C-3.34 16.35 -2.68 14.7 -2 13 C-0.35 13.33 1.3 13.66 3 14 C2.67 13.01 2.34 12.02 2 11 C2.66 10.67 3.32 10.34 4 10 C3.01 9.01 2.02 8.02 1 7 C1.66 7 2.32 7 3 7 C2.72382467 5.05925139 2.72382467 5.05925139 2 3 C1.01 2.34 0.02 1.68 -1 1 C-0.67 0.67 -0.34 0.34 0 0 Z " fill="#F21F3A" transform="translate(121,73)"/>
<path d="M0 0 C1.8125 1.4375 1.8125 1.4375 3 3 C3.66 2.67 4.32 2.34 5 2 C5.763125 2.165 6.52625 2.33 7.3125 2.5 C10.22150258 3.04120978 12.14543707 2.63434732 15 2 C15.33 2.33 15.66 2.66 16 3 C16.33 2.34 16.66 1.68 17 1 C17.66 1 18.32 1 19 1 C19 1.66 19 2.32 19 3 C20.65 2.67 22.3 2.34 24 2 C25 6.875 25 6.875 25 8 C22.18743719 8.02684312 19.37512759 8.04676188 16.5625 8.0625 C15.76005859 8.07087891 14.95761719 8.07925781 14.13085938 8.08789062 C12.08704779 8.0965143 10.04316098 8.0522815 8 8 C7.67 7.67 7.34 7.34 7 7 C6.2265625 7.2165625 6.2265625 7.2165625 5.4375 7.4375 C1.92669543 8.24768567 -1.3996635 8.06000561 -5 8 C-5 5.69 -5 3.38 -5 1 C-2.6875 0.3125 -2.6875 0.3125 0 0 Z M-4 2 C-4 3.65 -4 5.3 -4 7 C-2.68 7 -1.36 7 0 7 C0 5.35 0 3.7 0 2 C-1.32 2 -2.64 2 -4 2 Z M19 4 C20 7 20 7 20 7 Z " fill="#757B7B" transform="translate(46,143)"/>
<path d="M0 0 C1.65 0 3.3 0 5 0 C5 1.32 5 2.64 5 4 C6.32 4 7.64 4 9 4 C9 5.32 9 6.64 9 8 C7.68 8 6.36 8 5 8 C5 10.31 5 12.62 5 15 C6.65 15 8.3 15 10 15 C10 16.32 10 17.64 10 19 C6.95908502 19.95571614 5.38377971 20.13545166 2.34375 19.0625 C0 17 0 17 -0.40161133 15.1574707 C-0.49351623 12.85725938 -0.43507138 10.61118476 -0.3125 8.3125 C-0.28994141 7.51521484 -0.26738281 6.71792969 -0.24414062 5.89648438 C-0.18526944 3.93018666 -0.09558755 1.96485509 0 0 Z " fill="#373836" transform="translate(86,122)"/>
<path d="M0 0 C0 0.33 0 0.66 0 1 C-0.55985596 0.99476318 -1.11971191 0.98952637 -1.6965332 0.98413086 C-4.23517737 0.96333309 -6.77380359 0.95033096 -9.3125 0.9375 C-10.19357422 0.92912109 -11.07464844 0.92074219 -11.98242188 0.91210938 C-12.82998047 0.90888672 -13.67753906 0.90566406 -14.55078125 0.90234375 C-15.33106689 0.89710693 -16.11135254 0.89187012 -16.9152832 0.88647461 C-19.1961555 0.91862137 -19.1961555 0.91862137 -22 2 C-22 2.66 -22 3.32 -22 4 C-21.04738281 3.97679687 -20.09476563 3.95359375 -19.11328125 3.9296875 C-17.85902344 3.91164063 -16.60476562 3.89359375 -15.3125 3.875 C-13.45044922 3.84019531 -13.45044922 3.84019531 -11.55078125 3.8046875 C-8.18762143 3.98967979 -6.0014413 4.54232105 -3 6 C-7.544254 7.29310663 -11.9316063 7.18399747 -16.625 7.1875 C-17.49640625 7.19974609 -18.3678125 7.21199219 -19.265625 7.22460938 C-20.51472656 7.22750977 -20.51472656 7.22750977 -21.7890625 7.23046875 C-22.54912598 7.23457764 -23.30918945 7.23868652 -24.09228516 7.24291992 C-26 7 -26 7 -28 5 C-27.34 5 -26.68 5 -26 5 C-26 4.01 -26 3.02 -26 2 C-28.31 2 -30.62 2 -33 2 C-23.69790496 -4.20139669 -10.26654498 -3.28529439 0 0 Z " fill="#EA3C53" transform="translate(115,23)"/>
<path d="M0 0 C0.99 0.33 1.98 0.66 3 1 C3.33 0.67 3.66 0.34 4 0 C5.79030438 -0.07289513 7.58333718 -0.08366137 9.375 -0.0625 C10.35210937 -0.05347656 11.32921875 -0.04445312 12.3359375 -0.03515625 C13.65464844 -0.01775391 13.65464844 -0.01775391 15 0 C15.99 0 16.98 0 18 0 C18.99 0.33 19.98 0.66 21 1 C21 2.65 21 4.3 21 6 C19.93072266 5.98259766 19.93072266 5.98259766 18.83984375 5.96484375 C11.68018006 5.89739066 5.01247149 6.51250605 -2 8 C-2 5.69 -2 3.38 -2 1 C-1.34 0.67 -0.68 0.34 0 0 Z M0 2 C1 5 1 5 1 5 Z " fill="#979D9D" transform="translate(138,145)"/>
<path d="M0 0 C2.8125 0.6875 2.8125 0.6875 4.8125 3.6875 C4.4825 4.6775 4.1525 5.6675 3.8125 6.6875 C0.34308454 6.22927532 -2.86145049 5.79618317 -6.1875 4.6875 C-8.58004576 4.46189324 -10.97678123 4.27901405 -13.375 4.125 C-14.64730469 4.04121094 -15.91960937 3.95742188 -17.23046875 3.87109375 C-18.20628906 3.81050781 -19.18210937 3.74992187 -20.1875 3.6875 C-20.1875 3.0275 -20.1875 2.3675 -20.1875 1.6875 C-14.5981037 -2.0387642 -6.54131109 -0.6638117 0 0 Z " fill="#FE0020" transform="translate(113.1875,23.3125)"/>
<path d="M0 0 C1.65 0 3.3 0 5 0 C5 6.6 5 13.2 5 20 C3.35 20 1.7 20 0 20 C0 13.4 0 6.8 0 0 Z " fill="#383A38" transform="translate(63,121)"/>
<path d="M0 0 C1.46953125 0.01450195 1.46953125 0.01450195 2.96875 0.02929688 C4.49242188 0.06700195 4.49242188 0.06700195 6.046875 0.10546875 C7.59375 0.12577148 7.59375 0.12577148 9.171875 0.14648438 C11.71407292 0.18179268 14.25520723 0.23110839 16.796875 0.29296875 C16.136875 1.94296875 15.476875 3.59296875 14.796875 5.29296875 C6.52671976 5.50746845 -1.16548469 5.36719851 -9.203125 3.29296875 C-6.07376325 0.52444157 -4.15258687 -0.07242884 0 0 Z " fill="#F40521" transform="translate(91.203125,110.70703125)"/>
<path d="M0 0 C0.66 0 1.32 0 2 0 C2 10.89 2 21.78 2 33 C1.34 33 0.68 33 0 33 C-1.13324094 29.60027717 -1.12942456 26.98142899 -1.1328125 23.3984375 C-1.13410156 22.10421875 -1.13539062 20.81 -1.13671875 19.4765625 C-1.13462402 18.80399414 -1.1325293 18.13142578 -1.13037109 17.43847656 C-1.1250015 15.37557685 -1.1303336 13.31289311 -1.13671875 11.25 C-1.13542969 9.95835938 -1.13414063 8.66671875 -1.1328125 7.3359375 C-1.13168457 6.14532715 -1.13055664 4.9547168 -1.12939453 3.72802734 C-1 1 -1 1 0 0 Z " fill="#D8364B" transform="translate(103,32)"/>
<path d="M0 0 C1.23556641 0.01740234 1.23556641 0.01740234 2.49609375 0.03515625 C3.32238281 0.04417969 4.14867187 0.05320312 5 0.0625 C5.63808594 0.07410156 6.27617188 0.08570312 6.93359375 0.09765625 C6.93359375 1.41765625 6.93359375 2.73765625 6.93359375 4.09765625 C5.28359375 4.09765625 3.63359375 4.09765625 1.93359375 4.09765625 C1.93359375 7.72765625 1.93359375 11.35765625 1.93359375 15.09765625 C0.28359375 15.09765625 -1.36640625 15.09765625 -3.06640625 15.09765625 C-3.09326037 12.78521833 -3.11273466 10.47269355 -3.12890625 8.16015625 C-3.14050781 6.87238281 -3.15210938 5.58460938 -3.1640625 4.2578125 C-3.03692125 0.1435218 -3.03692125 0.1435218 0 0 Z " fill="#2F302E" transform="translate(39.06640625,125.90234375)"/>
<path d="M0 0 C-0.3125 1.875 -0.3125 1.875 -1 4 C-1.99 4.66 -2.98 5.32 -4 6 C-4.36530232 9.12557959 -4.36530232 9.12557959 -4.1875 12.625 C-4.16042969 13.81351563 -4.13335937 15.00203125 -4.10546875 16.2265625 C-4.07066406 17.14179687 -4.03585938 18.05703125 -4 19 C-4.66 18.67 -5.32 18.34 -6 18 C-6 24.6 -6 31.2 -6 38 C-10.29167021 33.70832979 -9.46416175 29.6739672 -9.5078125 23.91210938 C-9.50555664 23.19821045 -9.50330078 22.48431152 -9.50097656 21.7487793 C-9.50000456 19.5727085 -9.54161368 17.40017045 -9.5859375 15.22460938 C-9.5911452 13.838549 -9.59383268 12.4524764 -9.59375 11.06640625 C-9.60083984 9.80771729 -9.60792969 8.54902832 -9.61523438 7.25219727 C-9 4 -9 4 -6.71289062 1.55834961 C-4 0 -4 0 0 0 Z " fill="#E46D7D" transform="translate(77,52)"/>
<path d="M0 0 C2.64 0 5.28 0 8 0 C7.67 0.99 7.34 1.98 7 3 C6.01 3 5.02 3 4 3 C4 4.98 4 6.96 4 9 C4.66 9.33 5.32 9.66 6 10 C5.34 12.97 4.68 15.94 4 19 C2.68 19 1.36 19 0 19 C0 12.73 0 6.46 0 0 Z " fill="#0E0F0D" transform="translate(20,122)"/>
<path d="M0 0 C2.33294775 -0.04241723 4.66702567 -0.04092937 7 0 C8 1 8 1 8.25 4.6875 C8.2207389 8.74747773 7.10302439 11.49495935 5 15 C4.34 15 3.68 15 3 15 C1.08373163 10.01770224 0.4452885 5.27315333 0 0 Z " fill="#F50521" transform="translate(127,48)"/>
<path d="M0 0 C0.33 0.66 0.66 1.32 1 2 C5.455 1.505 5.455 1.505 10 1 C8.68 1.33 7.36 1.66 6 2 C6 3.32 6 4.64 6 6 C8.31 6 10.62 6 13 6 C13 7.32 13 8.64 13 10 C6.75840203 11.34622701 6.75840203 11.34622701 3.125 9.6875 C1 8 1 8 0 6 C-0.039992 4.00039988 -0.04346799 1.99952758 0 0 Z " fill="#4B4E4A" transform="translate(96,131)"/>
<path d="M0 0 C0.33 0.99 0.66 1.98 1 3 C1.33 2.01 1.66 1.02 2 0 C3.65 -0.33 5.3 -0.66 7 -1 C7.33 -0.34 7.66 0.32 8 1 C7.34 1 6.68 1 6 1 C6 2.32 6 3.64 6 5 C4.02090602 5.02686553 2.04171029 5.04633375 0.0625 5.0625 C-1.03964844 5.07410156 -2.14179687 5.08570313 -3.27734375 5.09765625 C-6 5 -6 5 -7 4 C-7.99 5.485 -7.99 5.485 -9 7 C-9.99 6.67 -10.98 6.34 -12 6 C-11.34 6 -10.68 6 -10 6 C-10.66 4.02 -11.32 2.04 -12 0 C-10.68 0 -9.36 0 -8 0 C-4.71023192 -1.09658936 -3.28696233 -0.79953138 0 0 Z M-5 1 C-4.67 1.99 -4.34 2.98 -4 4 C-3.67 3.01 -3.34 2.02 -3 1 C-3.66 1 -4.32 1 -5 1 Z " fill="#707978" transform="translate(85,146)"/>
<path d="M0 0 C1.65 0 3.3 0 5 0 C5 4.95 5 9.9 5 15 C3.35 15 1.7 15 0 15 C0 10.05 0 5.1 0 0 Z " fill="#4D4E4E" transform="translate(138,126)"/>
<path d="M0 0 C2.375 0.3125 2.375 0.3125 5 1 C7.28062828 4.42094242 7.21925007 5.68187222 7.125 9.6875 C7.10695313 10.68136719 7.08890625 11.67523438 7.0703125 12.69921875 C7.03550781 13.83810547 7.03550781 13.83810547 7 15 C5.35 15 3.7 15 2 15 C1.96261719 14.30132812 1.92523438 13.60265625 1.88671875 12.8828125 C1.82097656 11.97273437 1.75523438 11.06265625 1.6875 10.125 C1.62949219 9.22007812 1.57148437 8.31515625 1.51171875 7.3828125 C1.2117961 4.63778399 1.2117961 4.63778399 -2 3 C-0.68 2.67 0.64 2.34 2 2 C1.34 1.34 0.68 0.68 0 0 Z " fill="#3B3E39" transform="translate(77,126)"/>
<path d="M0 0 C0.4375 2.125 0.4375 2.125 0 5 C-2.12689146 7.276147 -4.5023433 9.1458722 -7 11 C-7.33 10.34 -7.66 9.68 -8 9 C-9.32 9 -10.64 9 -12 9 C-12 7 -12 7 -9.6875 4.5 C-4.85 0 -4.85 0 0 0 Z " fill="#F11530" transform="translate(135,98)"/>
<path d="M0 0 C3.5625 0.3125 3.5625 0.3125 5.5 1.6875 C6.5625 3.3125 6.5625 3.3125 6.5625 5.3125 C5.0625 6.9375 5.0625 6.9375 3.5625 8.3125 C4.2225 8.3125 4.8825 8.3125 5.5625 8.3125 C5.5625 8.9725 5.5625 9.6325 5.5625 10.3125 C4.5725 10.6425 3.5825 10.9725 2.5625 11.3125 C2.2325 9.3325 1.9025 7.3525 1.5625 5.3125 C0.5725 5.3125 -0.4175 5.3125 -1.4375 5.3125 C-2.0975 5.9725 -2.7575 6.6325 -3.4375 7.3125 C-4.4275 7.3125 -5.4175 7.3125 -6.4375 7.3125 C-5.67266544 2.46854777 -5.30770607 0.48251873 0 0 Z " fill="#202020" transform="translate(53.4375,125.6875)"/>
<path d="M0 0 C0.8353125 0.7734375 0.8353125 0.7734375 1.6875 1.5625 C3.91189866 3.32215414 3.91189866 3.32215414 6.4375 2.4375 C9 2 9 2 11.8125 3.9375 C12.534375 4.618125 13.25625 5.29875 14 6 C12.42298018 6.55978184 10.83800758 7.09719401 9.25 7.625 C8.36828125 7.92664063 7.4865625 8.22828125 6.578125 8.5390625 C3.58982529 9.07333427 2.50076998 8.62433191 0 7 C0 6.34 0 5.68 0 5 C-0.66 4.67 -1.32 4.34 -2 4 C-2 3.01 -2 2.02 -2 1 C-1.34 0.67 -0.68 0.34 0 0 Z " fill="#F0132F" transform="translate(76,105)"/>
<path d="M0 0 C1.32 0.66 2.64 1.32 4 2 C3.88573491 4.41760876 3.75900339 6.83347218 3.625 9.25 C3.5940625 9.93191406 3.563125 10.61382812 3.53125 11.31640625 C3.31740626 14.98739038 2.98922945 17.86251616 1 21 C-0.78372815 16.4102489 -1.24456334 12.60013523 -1.1875 7.6875 C-1.18105469 6.45386719 -1.17460938 5.22023438 -1.16796875 3.94921875 C-1 1 -1 1 0 0 Z " fill="#F80321" transform="translate(54,59)"/>
<path d="M0 0 C0 0.99 0 1.98 0 3 C-0.66 3.66 -1.32 4.32 -2 5 C-2.70710678 6.64991582 -3.37943989 8.31562256 -4 10 C-4.66 10 -5.32 10 -6 10 C-6.12375 11.051875 -6.2475 12.10375 -6.375 13.1875 C-7.62780269 20.82959641 -7.62780269 20.82959641 -11.125 23.8125 C-11.74375 24.204375 -12.3625 24.59625 -13 25 C-12.6176445 16.58817908 -8.5644837 8.1894837 -2.625 2.25 C-1.75875 1.5075 -0.8925 0.765 0 0 Z " fill="#E62643" transform="translate(66,35)"/>
<path d="M0 0 C0.98484375 0.10183594 1.9696875 0.20367187 2.984375 0.30859375 C4.10585937 0.43427734 4.10585937 0.43427734 5.25 0.5625 C4.92 2.2125 4.59 3.8625 4.25 5.5625 C-0.5 5.6875 -0.5 5.6875 -2.75 4.5625 C-4.09061543 4.86521961 -5.42405895 5.20087971 -6.75 5.5625 C-7.74 5.5625 -8.73 5.5625 -9.75 5.5625 C-10.08 4.5725 -10.41 3.5825 -10.75 2.5625 C-9.75 0.5625 -9.75 0.5625 -8.046875 -0.08984375 C-5.25636896 -0.51221626 -2.80414447 -0.30044405 0 0 Z " fill="#8E9695" transform="translate(128.75,145.4375)"/>
<path d="M0 0 C1.134375 0.020625 2.26875 0.04125 3.4375 0.0625 C1.4575 1.0525 1.4575 1.0525 -0.5625 2.0625 C0.7575 2.7225 2.0775 3.3825 3.4375 4.0625 C3.4375 5.0525 3.4375 6.0425 3.4375 7.0625 C1.519375 7.18625 1.519375 7.18625 -0.4375 7.3125 C-2.61583418 7.52119931 -2.61583418 7.52119931 -4.5625 8.0625 C-6.1524433 9.98314793 -6.1524433 9.98314793 -6.5625 12.0625 C-7.49300292 8.42507951 -7.86708505 6.68551488 -6.1875 3.25 C-3.82303834 0.06707085 -3.82303834 0.06707085 0 0 Z M-1.5625 4.0625 C-1.5625 4.7225 -1.5625 5.3825 -1.5625 6.0625 C-0.2425 5.7325 1.0775 5.4025 2.4375 5.0625 C1.1175 4.7325 -0.2025 4.4025 -1.5625 4.0625 Z " fill="#3F3F3E" transform="translate(151.5625,125.9375)"/>
<path d="M0 0 C0 1.65 0 3.3 0 5 C-1.39077301 5.82113177 -2.78788893 6.63152495 -4.1875 7.4375 C-4.96480469 7.88996094 -5.74210937 8.34242187 -6.54296875 8.80859375 C-9.04931977 10.02391499 -11.25790365 10.57626575 -14 11 C-11.82747948 6.07562016 -5.74036989 0 0 0 Z " fill="#E3556A" transform="translate(102,34)"/>
<path d="M0 0 C0.66 0 1.32 0 2 0 C2 0.66 2 1.32 2 2 C2.66 2 3.32 2 4 2 C4.98248524 6.0527516 5.08159574 9.83861737 5 14 C4.01 14 3.02 14 2 14 C-0.24281523 8.79666866 -1.55577239 5.65735415 0 0 Z " fill="#F8031F" transform="translate(141,50)"/>
<path d="M0 0 C0 2.31 0 4.62 0 7 C-1.65 7.66 -3.3 8.32 -5 9 C-5 9.66 -5 10.32 -5 11 C-5.99 11 -6.98 11 -8 11 C-8.375 8.3125 -8.375 8.3125 -8 5 C-5.87314885 2.45959445 -3.46631397 0 0 0 Z " fill="#EC8291" transform="translate(99,50)"/>
<path d="M0 0 C2.38313638 3.57470457 2.64837918 4.78553535 2 9 C0.55689075 10.90037352 -1.02430187 12.58817099 -2.6640625 14.3203125 C-4.26192983 16.03146102 -4.26192983 16.03146102 -4.375 18.9375 C-4.189375 19.9584375 -4.189375 19.9584375 -4 21 C-5.5625 19.8125 -5.5625 19.8125 -7 18 C-6.6875 15.3125 -6.6875 15.3125 -6 13 C-5.34 13 -4.68 13 -4 13 C-4 12.34 -4 11.68 -4 11 C-3.34 11 -2.68 11 -2 11 C-2 8.03 -2 5.06 -2 2 C-1.34 2 -0.68 2 0 2 C0 1.34 0 0.68 0 0 Z " fill="#F60424" transform="translate(143,74)"/>
<path d="M0 0 C0.33 0 0.66 0 1 0 C1.66 10.23 2.32 20.46 3 31 C2.01 31 1.02 31 0 31 C0 20.77 0 10.54 0 0 Z " fill="#D9112B" transform="translate(70,57)"/>
<path d="M0 0 C2.83833554 1.13533421 4.80962228 2.29083424 7.125 4.25 C4.815 4.25 2.505 4.25 0.125 4.25 C0.125 4.91 0.125 5.57 0.125 6.25 C0.785 6.25 1.445 6.25 2.125 6.25 C2.125 7.24 2.125 8.23 2.125 9.25 C-0.845 8.26 -3.815 7.27 -6.875 6.25 C-6.875 5.92 -6.875 5.59 -6.875 5.25 C-5.225 5.25 -3.575 5.25 -1.875 5.25 C-1.875 4.26 -1.875 3.27 -1.875 2.25 C-2.865 1.59 -3.855 0.93 -4.875 0.25 C-2.875 -0.75 -2.875 -0.75 0 0 Z " fill="#EB3850" transform="translate(118.875,24.75)"/>
<path d="M0 0 C-0.66 1.98 -1.32 3.96 -2 6 C-3.32 5.67 -4.64 5.34 -6 5 C-6.33 5.66 -6.66 6.32 -7 7 C-7.33 6.34 -7.66 5.68 -8 5 C-11.3 5 -14.6 5 -18 5 C-14.88446461 2.92297641 -12.60989929 2.25093145 -9 1.375 C-7.948125 1.11460938 -6.89625 0.85421875 -5.8125 0.5859375 C-3 0 -3 0 0 0 Z " fill="#E85669" transform="translate(145,35)"/>
<path d="M0 0 C0.99 0.33 1.98 0.66 3 1 C3 1.66 3 2.32 3 3 C4.65 2.67 6.3 2.34 8 2 C8 3.32 8 4.64 8 6 C4.38026598 7.31626692 1.90432869 8 -2 8 C-2 5.69 -2 3.38 -2 1 C-1.34 0.67 -0.68 0.34 0 0 Z M0 2 C1 5 1 5 1 5 Z " fill="#808585" transform="translate(138,145)"/>
<path d="M0 0 C0.33 0.99 0.66 1.98 1 3 C2.32 3 3.64 3 5 3 C5 4.32 5 5.64 5 7 C1.04 7 -2.92 7 -7 7 C-7 4.69 -7 2.38 -7 0 C-2.25 -1.125 -2.25 -1.125 0 0 Z M-6 1 C-6 2.65 -6 4.3 -6 6 C-4.68 6 -3.36 6 -2 6 C-2 4.35 -2 2.7 -2 1 C-3.32 1 -4.64 1 -6 1 Z " fill="#616766" transform="translate(48,144)"/>
<path d="M0 0 C0.99 0.33 1.98 0.66 3 1 C3 1.99 3 2.98 3 4 C3.66 4 4.32 4 5 4 C7 6 7 6 7.125 8.625 C7.08375 9.40875 7.0425 10.1925 7 11 C5.68 11.33 4.36 11.66 3 12 C2.814375 11.071875 2.814375 11.071875 2.625 10.125 C2.12802644 7.80879168 2.12802644 7.80879168 0 6 C0.33 5.34 0.66 4.68 1 4 C0.34 4 -0.32 4 -1 4 C-0.67 2.68 -0.34 1.36 0 0 Z " fill="#F70321" transform="translate(58,85)"/>
<path d="M0 0 C0.33 0 0.66 0 1 0 C1 6.6 1 13.2 1 20 C-1.31 21.32 -3.62 22.64 -6 24 C-6 23.34 -6 22.68 -6 22 C-7.32 22.33 -8.64 22.66 -10 23 C-7.51047079 20.33264727 -5.36591866 18.44253657 -2 17 C-2 17.66 -2 18.32 -2 19 C-1.34 19 -0.68 19 0 19 C0 12.73 0 6.46 0 0 Z " fill="#EB6C7F" transform="translate(105,46)"/>
<path d="M0 0 C1.65 0 3.3 0 5 0 C6.0070238 5.03511899 5.97387813 8.23947038 4 13 C1.99706653 9.99559979 1.50728374 8.29006055 0.875 4.8125 C0.70742187 3.91144531 0.53984375 3.01039063 0.3671875 2.08203125 C0.24601563 1.39496094 0.12484375 0.70789063 0 0 Z " fill="#4A4C4A" transform="translate(159,126)"/>
<path d="M0 0 C2 1 2 1 3 3 C1.68 3 0.36 3 -1 3 C-0.67 3.99 -0.34 4.98 0 6 C-2.64 6.99 -5.28 7.98 -8 9 C-8 9.66 -8 10.32 -8 11 C-9.65 10.67 -11.3 10.34 -13 10 C-9.28249221 5.79759989 -4.68339021 3.00217321 0 0 Z " fill="#EE2A45" transform="translate(83,82)"/>
<path d="M0 0 C1.32 0.33 2.64 0.66 4 1 C3.61328125 1.42667969 3.2265625 1.85335937 2.828125 2.29296875 C-2.14814006 8.26695032 -4.06811887 14.54521164 -6 22 C-7.71056541 19.41569255 -8.05220752 18.31678461 -7.5390625 15.203125 C-7.23742188 14.22859375 -6.93578125 13.2540625 -6.625 12.25 C-6.32851563 11.26515625 -6.03203125 10.2803125 -5.7265625 9.265625 C-5.48679688 8.51796875 -5.24703125 7.7703125 -5 7 C-4.34 7 -3.68 7 -3 7 C-3 6.34 -3 5.68 -3 5 C-2.34 5 -1.68 5 -1 5 C-0.67 3.35 -0.34 1.7 0 0 Z " fill="#E74157" transform="translate(66,42)"/>
<path d="M0 0 C2.5 1 2.5 1 5 2 C5.66 1.67 6.32 1.34 7 1 C6.67 2.65 6.34 4.3 6 6 C5.01 5.67 4.02 5.34 3 5 C2.67 4.34 2.34 3.68 2 3 C1.67 3.99 1.34 4.98 1 6 C0.34 6 -0.32 6 -1 6 C-1.33 5.67 -1.66 5.34 -2 5 C-2 5.33 -2 5.66 -2 6 C-3.65 6 -5.3 6 -7 6 C-6.67 4.68 -6.34 3.36 -6 2 C-5.01 2.33 -4.02 2.66 -3 3 C-2.67 2.34 -2.34 1.68 -2 1 C-1.34 0.67 -0.68 0.34 0 0 Z " fill="#717878" transform="translate(112,145)"/>
<path d="M0 0 C2 1 2 1 2 1 Z M0 2 C-0.33 4.31 -0.66 6.62 -1 9 C-3.31 8.34 -5.62 7.68 -8 7 C-8.33 5.68 -8.66 4.36 -9 3 C-2.25 0.875 -2.25 0.875 0 2 Z " fill="#F21732" transform="translate(83,87)"/>
<path d="M0 0 C1.45945288 0.08708669 2.91765868 0.19526907 4.375 0.3125 C5.59316406 0.39951172 5.59316406 0.39951172 6.8359375 0.48828125 C9 1 9 1 11 4 C10.67 4.99 10.34 5.98 10 7 C3.375 6.25 3.375 6.25 0 4 C0 2.66666667 0 1.33333333 0 0 Z " fill="#F20526" transform="translate(107,23)"/>
<path d="M0 0 C2.31 0 4.62 0 7 0 C7 1.65 7 3.3 7 5 C3.7 5.33 0.4 5.66 -3 6 C-2.67 4.68 -2.34 3.36 -2 2 C-1.34 2 -0.68 2 0 2 C0 1.34 0 0.68 0 0 Z " fill="#F60421" transform="translate(82,25)"/>
<path d="M0 0 C0.66 0.33 1.32 0.66 2 1 C0.71937515 2.7074998 -0.61767557 4.37373596 -2 6 C-2.66 6 -3.32 6 -4 6 C-4.268125 6.639375 -4.53625 7.27875 -4.8125 7.9375 C-6 10 -6 10 -9 11 C-11.00875442 10.72428861 -13.01178687 10.39764263 -15 10 C-11.50436954 7.66957969 -7.89910872 5.56482157 -4.27734375 3.4375 C-1.91875071 2.06575918 -1.91875071 2.06575918 0 0 Z " fill="#EC425C" transform="translate(127,99)"/>
<path d="M0 0 C1.65 0 3.3 0 5 0 C4.34 2.97 3.68 5.94 3 9 C1.35 8.67 -0.3 8.34 -2 8 C-1.34 5.36 -0.68 2.72 0 0 Z " fill="#484B4A" transform="translate(132,126)"/>
<path d="M0 0 C0 0.66 0 1.32 0 2 C-0.99 2.33 -1.98 2.66 -3 3 C-3.73323796 5.01508358 -3.73323796 5.01508358 -4 7 C-2.68 7 -1.36 7 0 7 C-0.8125 8.9375 -0.8125 8.9375 -2 11 C-2.99 11.33 -3.98 11.66 -5 12 C-5.33 10.02 -5.66 8.04 -6 6 C-6.99 6 -7.98 6 -9 6 C-7.8803014 4.99406757 -6.7540588 3.9954151 -5.625 3 C-4.68527344 2.1646875 -4.68527344 2.1646875 -3.7265625 1.3125 C-2 0 -2 0 0 0 Z " fill="#E83D53" transform="translate(76,28)"/>
<path d="M0 0 C0.66 0 1.32 0 2 0 C2.66 1.98 3.32 3.96 4 6 C3.34 6 2.68 6 2 6 C2 5.34 2 4.68 2 4 C1.34 4 0.68 4 0 4 C0 8.62 0 13.24 0 18 C-0.33 18 -0.66 18 -1 18 C-2.78166025 11.92139445 -3.621838 7.62528495 -0.9375 1.625 C-0.4734375 0.820625 -0.4734375 0.820625 0 0 Z " fill="#E36678" transform="translate(141,46)"/>
<path d="M0 0 C1.4540625 0.0309375 1.4540625 0.0309375 2.9375 0.0625 C4.70212683 3.15059695 4.9375 4.29562136 4.9375 8.0625 C3.2875 8.0625 1.6375 8.0625 -0.0625 8.0625 C-0.0625 6.4125 -0.0625 4.7625 -0.0625 3.0625 C-1.3825 2.4025 -2.7025 1.7425 -4.0625 1.0625 C-3.0625 0.0625 -3.0625 0.0625 0 0 Z " fill="#282B2A" transform="translate(154.0625,126.9375)"/>
<path d="M0 0 C1.65 0.33 3.3 0.66 5 1 C5.33 2.65 5.66 4.3 6 6 C5.01 6.66 4.02 7.32 3 8 C2.34 7.01 1.68 6.02 1 5 C-1.05925139 4.27617533 -1.05925139 4.27617533 -3 4 C-2.01 2.68 -1.02 1.36 0 0 Z " fill="#EE2540" transform="translate(132,94)"/>
<path d="M0 0 C4.455 0.99 4.455 0.99 9 2 C7 6 7 6 4.375 7.25 C3.59125 7.4975 2.8075 7.745 2 8 C2 6.68 2 5.36 2 4 C1.34 3.67 0.68 3.34 0 3 C0 2.01 0 1.02 0 0 Z " fill="#E64B62" transform="translate(128,76)"/>
<path d="M0 0 C1.36623674 2.73247348 1.128426 4.98198902 1 8 C0 9 0 9 -2.5625 9.0625 C-3.366875 9.041875 -4.17125 9.02125 -5 9 C-4.5206753 4.68607774 -3.2542015 2.83430453 0 0 Z " fill="#F60926" transform="translate(70,33)"/>
<path d="M0 0 C-0.33 1.32 -0.66 2.64 -1 4 C-1.99 4 -2.98 4 -4 4 C-4 4.99 -4 5.98 -4 7 C-4.99 7 -5.98 7 -7 7 C-7.33 5.35 -7.66 3.7 -8 2 C-4.77208445 -0.1519437 -3.71599191 -0.20086443 0 0 Z " fill="#F50421" transform="translate(84,61)"/>
<path d="M0 0 C1.2065625 0.0309375 1.2065625 0.0309375 2.4375 0.0625 C2.4375 0.7225 2.4375 1.3825 2.4375 2.0625 C1.4475 2.0625 0.4575 2.0625 -0.5625 2.0625 C-0.5625 3.7125 -0.5625 5.3625 -0.5625 7.0625 C-1.2225 7.0625 -1.8825 7.0625 -2.5625 7.0625 C-2.5625 9.7025 -2.5625 12.3425 -2.5625 15.0625 C-2.8925 15.0625 -3.2225 15.0625 -3.5625 15.0625 C-3.58935412 12.75006208 -3.60882841 10.4375373 -3.625 8.125 C-3.63660156 6.83722656 -3.64820312 5.54945313 -3.66015625 4.22265625 C-3.53232863 0.08615436 -3.53232863 0.08615436 0 0 Z " fill="#646765" transform="translate(73.5625,125.9375)"/>
<path d="M0 0 C0.99 0 1.98 0 3 0 C3 0.99 3 1.98 3 3 C1.1015625 4.60546875 1.1015625 4.60546875 -1.375 6.1875 C-2.18710938 6.71730469 -2.99921875 7.24710937 -3.8359375 7.79296875 C-6 9 -6 9 -8 9 C-8 8.01 -8 7.02 -8 6 C-7.01 5.67 -6.02 5.34 -5 5 C-4.34 4.01 -3.68 3.02 -3 2 C-2.01 2 -1.02 2 0 2 C0 1.34 0 0.68 0 0 Z " fill="#E7384F" transform="translate(117,89)"/>
<path d="M0 0 C1.04542969 0.00515625 2.09085937 0.0103125 3.16796875 0.015625 C4.72451172 0.00789063 4.72451172 0.00789063 6.3125 0 C9.37474505 0.26730765 11.58412967 0.97472399 14.35546875 2.265625 C10.45066626 3.62425473 6.64529115 3.16032212 2.60546875 2.828125 C1.90808594 2.77591797 1.21070312 2.72371094 0.4921875 2.66992188 C-1.22049328 2.54088428 -2.93258191 2.40402886 -4.64453125 2.265625 C-2.64453125 0.265625 -2.64453125 0.265625 0 0 Z " fill="#E75C72" transform="translate(97.64453125,26.734375)"/>
<path d="M0 0 C0.886875 0.185625 1.77375 0.37125 2.6875 0.5625 C5.85178811 0.98042484 7.94839642 0.80777742 11 0 C11 0.99 11 1.98 11 3 C10.01 3 9.02 3 8 3 C7.67 3.99 7.34 4.98 7 6 C6.01 6 5.02 6 4 6 C3.34 5.01 2.68 4.02 2 3 C1.01 3 0.02 3 -1 3 C-0.67 2.01 -0.34 1.02 0 0 Z " fill="#939999" transform="translate(50,145)"/>
<path d="M0 0 C2.0625 0.4375 2.0625 0.4375 4 1 C-1.13580247 5.03527337 -1.13580247 5.03527337 -5.0625 4.875 C-7.79457662 4.06118994 -10.39235614 3.15043112 -13 2 C-10.21145291 1.0704843 -7.72116386 0.95822386 -4.8125 1 C-3.554375 1 -2.29625 1 -1 1 C-0.67 0.67 -0.34 0.34 0 0 Z " fill="#E75169" transform="translate(104,99)"/>
<path d="M0 0 C4.875 4.625 4.875 4.625 6 8 C5.34 8 4.68 8 4 8 C4 7.34 4 6.68 4 6 C1.00667261 6.9977758 0.05233685 7.7522025 -2 10 C-2.66 8.68 -3.32 7.36 -4 6 C-3.01 5.67 -2.02 5.34 -1 5 C-0.67 3.35 -0.34 1.7 0 0 Z " fill="#EA3B53" transform="translate(65,91)"/>
<path d="M0 0 C0.66 0 1.32 0 2 0 C2.33 1.32 2.66 2.64 3 4 C-1.75 8 -1.75 8 -4 8 C-4 6.35 -4 4.7 -4 3 C-2.68 2.67 -1.36 2.34 0 2 C0 1.34 0 0.68 0 0 Z " fill="#DB3349" transform="translate(91,61)"/>
<path d="M0 0 C0.99 0 1.98 0 3 0 C3.36923077 5.53846154 3.36923077 5.53846154 1.5 7.875 C0.7575 8.431875 0.7575 8.431875 0 9 C0 8.34 0 7.68 0 7 C-1.98 7 -3.96 7 -6 7 C-3.35261084 5.5393715 -2.10551666 5 1 5 C1 4.34 1 3.68 1 3 C0.34 3 -0.32 3 -1 3 C-0.67 2.01 -0.34 1.02 0 0 Z " fill="#484948" transform="translate(58,131)"/>
<path d="M0 0 C1.65 0.33 3.3 0.66 5 1 C5.33 1.99 5.66 2.98 6 4 C5.01 4.495 5.01 4.495 4 5 C3.53248212 7.35599235 3.53248212 7.35599235 3.375 10.0625 C3.30023438 10.98160156 3.22546875 11.90070313 3.1484375 12.84765625 C3.09945312 13.55792969 3.05046875 14.26820313 3 15 C2.67 15 2.34 15 2 15 C1.96261719 14.30132812 1.92523438 13.60265625 1.88671875 12.8828125 C1.82097656 11.97273437 1.75523438 11.06265625 1.6875 10.125 C1.62949219 9.22007812 1.57148437 8.31515625 1.51171875 7.3828125 C1.2117961 4.63778399 1.2117961 4.63778399 -2 3 C-0.68 2.67 0.64 2.34 2 2 C1.34 1.34 0.68 0.68 0 0 Z " fill="#404342" transform="translate(77,126)"/>
<path d="M0 0 C1.134375 0.020625 2.26875 0.04125 3.4375 0.0625 C3.4375 0.7225 3.4375 1.3825 3.4375 2.0625 C1.7875 2.3925 0.1375 2.7225 -1.5625 3.0625 C-1.8925 4.3825 -2.2225 5.7025 -2.5625 7.0625 C-3.5525 6.7325 -4.5425 6.4025 -5.5625 6.0625 C-4.48849278 0.07874549 -4.48849278 0.07874549 0 0 Z " fill="#181817" transform="translate(102.5625,126.9375)"/>
<path d="M0 0 C2.64 0 5.28 0 8 0 C8 0.99 8 1.98 8 3 C8.66 3 9.32 3 10 3 C9.67 3.99 9.34 4.98 9 6 C7.35 5.67 5.7 5.34 4 5 C4 6.32 4 7.64 4 9 C5.32 9.33 6.64 9.66 8 10 C6.35 10 4.7 10 3 10 C3 8.02 3 6.04 3 4 C3.99 3.67 4.98 3.34 6 3 C6.33 2.34 6.66 1.68 7 1 C4.69 1 2.38 1 0 1 C0 0.67 0 0.34 0 0 Z " fill="#848684" transform="translate(21,121)"/>
<path d="M0 0 C3.63 2.31 7.26 4.62 11 7 C9.68 7.99 8.36 8.98 7 10 C6.54625 9.505 6.0925 9.01 5.625 8.5 C4.12364481 6.77390663 4.12364481 6.77390663 2 7 C1.34 4.69 0.68 2.38 0 0 Z " fill="#EB465E" transform="translate(72,99)"/>
<path d="M0 0 C2 1.1875 2 1.1875 4 3 C4.25 5.6875 4.25 5.6875 4 8 C2.35 8 0.7 8 -1 8 C-1.125 2.25 -1.125 2.25 0 0 Z " fill="#212221" transform="translate(164,133)"/>
<path d="M0 0 C0 0.99 0 1.98 0 3 C-1.609375 4.421875 -1.609375 4.421875 -3.75 5.75 C-4.44609375 6.19859375 -5.1421875 6.6471875 -5.859375 7.109375 C-8.38473764 8.16007332 -9.47856025 7.93134261 -12 7 C-10.3790787 5.82767315 -8.75313167 4.6622923 -7.125 3.5 C-6.22007813 2.8503125 -5.31515625 2.200625 -4.3828125 1.53125 C-2 0 -2 0 0 0 Z " fill="#E7415A" transform="translate(103,70)"/>
<path d="M0 0 C0.99 0.33 1.98 0.66 3 1 C1.125 6.75 1.125 6.75 0 9 C-0.66 9 -1.32 9 -2 9 C-2.66 6.36 -3.32 3.72 -4 1 C-3.34 1 -2.68 1 -2 1 C-2 1.99 -2 2.98 -2 4 C-1.34 4 -0.68 4 0 4 C0 2.68 0 1.36 0 0 Z " fill="#E6576A" transform="translate(132,54)"/>
<path d="M0 0 C0.66 0 1.32 0 2 0 C2 3.3 2 6.6 2 10 C1.01 10 0.02 10 -1 10 C-1.02689216 8.52093108 -1.04634621 7.04172517 -1.0625 5.5625 C-1.07410156 4.73878906 -1.08570312 3.91507813 -1.09765625 3.06640625 C-1 1 -1 1 0 0 Z " fill="#0F0E0C" transform="translate(114,131)"/>
<path d="M0 0 C2.31 0 4.62 0 7 0 C6.67 1.65 6.34 3.3 6 5 C4.35 5 2.7 5 1 5 C0.67 3.35 0.34 1.7 0 0 Z " fill="#7C8181" transform="translate(127,146)"/>
<path d="M0 0 C1.98 0 3.96 0 6 0 C6.33 1.32 6.66 2.64 7 4 C4.69 4.33 2.38 4.66 0 5 C0 4.01 0 3.02 0 2 C0.66 2 1.32 2 2 2 C1.34 1.34 0.68 0.68 0 0 Z " fill="#595D5C" transform="translate(151,137)"/>
<path d="M0 0 C1.32 0.66 2.64 1.32 4 2 C4 2.66 4 3.32 4 4 C1.01503209 4.94396421 -1.87179891 5.75232831 -5 6 C-7.5625 4.125 -7.5625 4.125 -9 2 C-6.03 2.33 -3.06 2.66 0 3 C0 2.01 0 1.02 0 0 Z " fill="#E16074" transform="translate(130,32)"/>
<path d="M0 0 C0.66 0.33 1.32 0.66 2 1 C1.34 2.32 0.68 3.64 0 5 C-1.32 5 -2.64 5 -4 5 C-4 6.98 -4 8.96 -4 11 C-4.33 11 -4.66 11 -5 11 C-5.25 4.375 -5.25 4.375 -3 1 C-2.01 0.67 -1.02 0.34 0 0 Z " fill="#4B4F4E" transform="translate(29,130)"/>
<path d="M0 0 C-1.36983503 3.16115776 -1.9890638 3.9927092 -5 6 C-7.1875 5.625 -7.1875 5.625 -9 5 C-6.54789272 1.19923372 -6.54789272 1.19923372 -3.9375 0.25 C-2 0 -2 0 0 0 Z " fill="#DC3D52" transform="translate(99,68)"/>
<path d="M0 0 C0.99 0.33 1.98 0.66 3 1 C3 2.65 3 4.3 3 6 C1.35 6 -0.3 6 -2 6 C-2 4.35 -2 2.7 -2 1 C-1.34 0.67 -0.68 0.34 0 0 Z " fill="#868D8C" transform="translate(68,145)"/>
<path d="M0 0 C1.134375 0.020625 2.26875 0.04125 3.4375 0.0625 C3.4375 1.0525 3.4375 2.0425 3.4375 3.0625 C1.4575 3.3925 -0.5225 3.7225 -2.5625 4.0625 C-3.2225 3.0725 -3.8825 2.0825 -4.5625 1.0625 C-3.5625 0.0625 -3.5625 0.0625 0 0 Z " fill="#282D2B" transform="translate(104.5625,137.9375)"/>
<path d="M0 0 C0.33 0.66 0.66 1.32 1 2 C2.32 2 3.64 2 5 2 C5.66 1.34 6.32 0.68 7 0 C7.33 1.65 7.66 3.3 8 5 C7.01 4.67 6.02 4.34 5 4 C4.67 4.66 4.34 5.32 4 6 C3.01 6.495 3.01 6.495 2 7 C0 5 0 5 -1 3 C-0.67 2.01 -0.34 1.02 0 0 Z " fill="#5B5A59" transform="translate(166,131)"/>
<path d="M0 0 C4.62 0 9.24 0 14 0 C12.02 0.99 12.02 0.99 10 2 C9.67 2.66 9.34 3.32 9 4 C7.35 4 5.7 4 4 4 C4.33 3.34 4.66 2.68 5 2 C3.35 1.67 1.7 1.34 0 1 C0 0.67 0 0.34 0 0 Z " fill="#666B68" transform="translate(113,126)"/>
<path d="M0 0 C0.66 0 1.32 0 2 0 C2 2.31 2 4.62 2 7 C0.35 7 -1.3 7 -3 7 C-1.125 1.125 -1.125 1.125 0 0 Z " fill="#DF3F53" transform="translate(97,50)"/>
<path d="M0 0 C0 0.99 0 1.98 0 3 C-0.66 3.66 -1.32 4.32 -2 5 C-2.28875 5.845625 -2.5775 6.69125 -2.875 7.5625 C-4 10 -4 10 -6.125 10.8125 C-6.74375 10.874375 -7.3625 10.93625 -8 11 C-6.52670958 5.99081256 -3.72484762 3.48192278 0 0 Z " fill="#E54057" transform="translate(66,35)"/>
<path d="M0 0 C0.66 0.99 1.32 1.98 2 3 C-2.43076923 6.07692308 -2.43076923 6.07692308 -5.3125 5.6875 C-5.869375 5.460625 -6.42625 5.23375 -7 5 C-4.53846154 1.18461538 -4.53846154 1.18461538 -1.8125 0.25 C-1.214375 0.1675 -0.61625 0.085 0 0 Z " fill="#DE4054" transform="translate(95,39)"/>
<path d="M0 0 C0.33 0 0.66 0 1 0 C1 3.3 1 6.6 1 10 C0.01 10 -0.98 10 -2 10 C-1.85950482 8.52031676 -1.71245174 7.04125484 -1.5625 5.5625 C-1.48128906 4.73878906 -1.40007812 3.91507813 -1.31640625 3.06640625 C-1 1 -1 1 0 0 Z " fill="#0E0D0E" transform="translate(141,131)"/>
<path d="M0 0 C0.66 0.33 1.32 0.66 2 1 C2 2.32 2 3.64 2 5 C-0.64 5 -3.28 5 -6 5 C-6 4.34 -6 3.68 -6 3 C-4.68 3 -3.36 3 -2 3 C-2 2.34 -2 1.68 -2 1 C-1.34 0.67 -0.68 0.34 0 0 Z " fill="#0F1110" transform="translate(108,130)"/>
<path d="M0 0 C2.97 0 5.94 0 9 0 C9 1.32 9 2.64 9 4 C7.35 4 5.7 4 4 4 C4 3.01 4 2.02 4 1 C2.68 0.67 1.36 0.34 0 0 Z " fill="#464949" transform="translate(37,126)"/>
<path d="M0 0 C0.99 0.33 1.98 0.66 3 1 C2.67 2.65 2.34 4.3 2 6 C0.68 5.67 -0.64 5.34 -2 5 C-2 3.68 -2 2.36 -2 1 C-1.34 0.67 -0.68 0.34 0 0 Z " fill="#434847" transform="translate(140,119)"/>
<path d="M0 0 C0.66 0.33 1.32 0.66 2 1 C1.09515208 2.15518918 0.1755794 3.29885406 -0.75 4.4375 C-1.26046875 5.07558594 -1.7709375 5.71367188 -2.296875 6.37109375 C-4.19667629 8.18810554 -5.43586908 8.60423197 -8 9 C-8 7 -8 7 -5.6875 4.5 C-3 2 -3 2 0 0 Z " fill="#F30523" transform="translate(131,98)"/>
<path d="M0 0 C0.66 0 1.32 0 2 0 C2 0.66 2 1.32 2 2 C3.65 1.67 5.3 1.34 7 1 C7 1.99 7 2.98 7 4 C5.35 3.67 3.7 3.34 2 3 C2.33 4.32 2.66 5.64 3 7 C2.01 6.67 1.02 6.34 0 6 C0 4.02 0 2.04 0 0 Z " fill="#8A8F8F" transform="translate(102,144)"/>
<path d="M0 0 C0.66 0 1.32 0 2 0 C1.34 1.98 0.68 3.96 0 6 C-1.65 6 -3.3 6 -5 6 C-5 5.01 -5 4.02 -5 3 C-3.35 2.67 -1.7 2.34 0 2 C0 1.34 0 0.68 0 0 Z " fill="#2D2D2D" transform="translate(132,135)"/>
<path d="M0 0 C1.2065625 0.0309375 1.2065625 0.0309375 2.4375 0.0625 C2.1075 1.3825 1.7775 2.7025 1.4375 4.0625 C0.1175 4.3925 -1.2025 4.7225 -2.5625 5.0625 C-3.125 3.125 -3.125 3.125 -3.5625 1.0625 C-2.5625 0.0625 -2.5625 0.0625 0 0 Z " fill="#EF223E" transform="translate(124.5625,106.9375)"/>
<path d="M0 0 C2.26609984 4.53219967 1.92735976 6.17772925 1 11 C0.34 11 -0.32 11 -1 11 C-1 11.66 -1 12.32 -1 13 C-1.66 13 -2.32 13 -3 13 C-2.01 8.71 -1.02 4.42 0 0 Z " fill="#E85469" transform="translate(140,74)"/>
<path d="M0 0 C1.65 0 3.3 0 5 0 C4.34 1.65 3.68 3.3 3 5 C1.35 4.67 -0.3 4.34 -2 4 C-1.34 2.68 -0.68 1.36 0 0 Z " fill="#F40422" transform="translate(122,42)"/>
<path d="M0 0 C1.9375 0.75 1.9375 0.75 4 2 C4.75 4.125 4.75 4.125 5 6 C3.35 6.33 1.7 6.66 0 7 C0 4.69 0 2.38 0 0 Z " fill="#EC2139" transform="translate(126,29)"/>
<path d="M0 0 C0.66 0.33 1.32 0.66 2 1 C1.34 1.61875 0.68 2.2375 0 2.875 C-2.2284549 4.75637427 -2.2284549 4.75637427 -2 7 C-3.65 6.67 -5.3 6.34 -7 6 C-4.74259377 3.66475218 -2.7194239 1.81294927 0 0 Z " fill="#E76073" transform="translate(77,86)"/>
<path d="M0 0 C0 0.99 0 1.98 0 3 C-1.65 3.66 -3.3 4.32 -5 5 C-5 6.65 -5 8.3 -5 10 C-5.33 10 -5.66 10 -6 10 C-6.25 6.6875 -6.25 6.6875 -6 3 C-3.96080228 0.89282902 -2.95416573 0 0 0 Z " fill="#ED6F7F" transform="translate(81,58)"/>
<path d="M0 0 C-0.99 1.32 -1.98 2.64 -3 4 C-5.475 3.01 -5.475 3.01 -8 2 C-6.14210462 -1.71579076 -3.44525918 -1.06921837 0 0 Z " fill="#E05A6C" transform="translate(123,42)"/>
<path d="M0 0 C0.185625 0.8971875 0.185625 0.8971875 0.375 1.8125 C0.95475985 4.26231348 0.95475985 4.26231348 3 7 C2.625 9.1875 2.625 9.1875 2 11 C1.67 10.01 1.34 9.02 1 8 C-0.99665314 6.31461399 -0.99665314 6.31461399 -3 5 C-2.01 3.35 -1.02 1.7 0 0 Z " fill="#EE3C57" transform="translate(136,88)"/>
<path d="M0 0 C1.32 0.33 2.64 0.66 4 1 C1.31158141 3.25245881 -0.64641875 4.88213958 -4 6 C-4 4.35 -4 2.7 -4 1 C-3.67 1.66 -3.34 2.32 -3 3 C-2.01 3 -1.02 3 0 3 C0 2.01 0 1.02 0 0 Z " fill="#DE435D" transform="translate(80,65)"/>
<path d="M0 0 C1.32 0.33 2.64 0.66 4 1 C1.03 4.96 1.03 4.96 -2 9 C-2.33 7.68 -2.66 6.36 -3 5 C-2.34 5 -1.68 5 -1 5 C-0.67 3.35 -0.34 1.7 0 0 Z " fill="#E84A66" transform="translate(66,42)"/>
<path d="M0 0 C0.99 0.33 1.98 0.66 3 1 C3 2.65 3 4.3 3 6 C1.68 6 0.36 6 -1 6 C-1.042721 4.33388095 -1.04063832 2.66617115 -1 1 C-0.67 0.67 -0.34 0.34 0 0 Z " fill="#757A7A" transform="translate(156,145)"/>
<path d="M0 0 C0.66 0 1.32 0 2 0 C2 1.98 2 3.96 2 6 C0.68 6 -0.64 6 -2 6 C-1.125 1.125 -1.125 1.125 0 0 Z " fill="#1D1C1B" transform="translate(49,127)"/>
<path d="M0 0 C0.33 0 0.66 0 1 0 C1.33 1.65 1.66 3.3 2 5 C2.99 5 3.98 5 5 5 C4.6875 6.9375 4.6875 6.9375 4 9 C3.01 9.33 2.02 9.66 1 10 C-0.1577506 6.52674819 -0.06866652 3.63932552 0 0 Z " fill="#EA7486" transform="translate(72,77)"/>
<path d="M0 0 C0.99 0.33 1.98 0.66 3 1 C2.01 1.495 2.01 1.495 1 2 C1 3.32 1 4.64 1 6 C0.01 6 -0.98 6 -2 6 C-2 4.35 -2 2.7 -2 1 C-1.34 0.67 -0.68 0.34 0 0 Z " fill="#959E9D" transform="translate(90,145)"/>
<path d="M0 0 C2.86724686 0.57344937 3.8614515 0.8614515 6 3 C6.125 5.625 6.125 5.625 6 8 C4.62437146 6.71034824 3.29233607 5.37310707 2 4 C2 3.34 2 2.68 2 2 C1.34 2 0.68 2 0 2 C0 1.34 0 0.68 0 0 Z " fill="#4F5352" transform="translate(29,122)"/>
<path d="M0 0 C1.0625 1.8125 1.0625 1.8125 2 4 C1.0022242 6.99332739 0.2477975 7.94766315 -2 10 C-1.54177532 6.53058454 -1.10868317 3.32604951 0 0 Z " fill="#E4445C" transform="translate(55,50)"/>
<path d="M0 0 C0.99 0 1.98 0 3 0 C4.25664978 2.90600261 5 4.79604584 5 8 C2.20127563 5.47211993 0.54226981 3.79588866 0 0 Z " fill="#E74358" transform="translate(56,89)"/>
<path d="M0 0 C1.32 0.33 2.64 0.66 4 1 C2.515 2.485 2.515 2.485 1 4 C0.01 3.67 -0.98 3.34 -2 3 C-1.34 2.67 -0.68 2.34 0 2 C0 1.34 0 0.68 0 0 Z M-4 3 C-3.34 3.33 -2.68 3.66 -2 4 C-2.99 4 -3.98 4 -5 4 C-4.67 3.67 -4.34 3.34 -4 3 Z " fill="#FC021B" transform="translate(103,71)"/>
<path d="M0 0 C0.99 0 1.98 0 3 0 C3 2.97 3 5.94 3 9 C2.67 9 2.34 9 2 9 C2 7.02 2 5.04 2 3 C0.68 2.67 -0.64 2.34 -2 2 C-1.34 1.34 -0.68 0.68 0 0 Z " fill="#E0455B" transform="translate(83,55)"/>
<path d="M0 0 C0.66 0 1.32 0 2 0 C2 0.66 2 1.32 2 2 C2.66 2 3.32 2 4 2 C3.67 3.32 3.34 4.64 3 6 C2.01 6 1.02 6 0 6 C-1.125 2.25 -1.125 2.25 0 0 Z " fill="#E90A2A" transform="translate(141,50)"/>
<path d="M0 0 C1.65 0 3.3 0 5 0 C4.67 2.31 4.34 4.62 4 7 C3.566875 6.0409375 3.566875 6.0409375 3.125 5.0625 C2.17176549 2.84793921 2.17176549 2.84793921 0 2 C0 1.34 0 0.68 0 0 Z " fill="#656A69" transform="translate(175,126)"/>
<path d="M0 0 C2.31 0 4.62 0 7 0 C6.01 0.66 5.02 1.32 4 2 C4.33 2.66 4.66 3.32 5 4 C3.68 4.33 2.36 4.66 1 5 C0.67 3.35 0.34 1.7 0 0 Z " fill="#383E3B" transform="translate(50,126)"/>
<path d="M0 0 C1.32 0 2.64 0 4 0 C4 1.65 4 3.3 4 5 C2.68 4.34 1.36 3.68 0 3 C0 2.01 0 1.02 0 0 Z " fill="#404143" transform="translate(168,126)"/>
<path d="M0 0 C0.99 0 1.98 0 3 0 C3.6875 1.8125 3.6875 1.8125 4 4 C2.5625 5.75 2.5625 5.75 1 7 C0.67 4.69 0.34 2.38 0 0 Z " fill="#F31F39" transform="translate(138,90)"/>
<path d="M0 0 C1.5 1.25 1.5 1.25 3 3 C3 4.32 3 5.64 3 7 C2.01 7 1.02 7 0 7 C0 4.69 0 2.38 0 0 Z " fill="#E11B30" transform="translate(70,81)"/>
<path d="M0 0 C0.33 0.66 0.66 1.32 1 2 C0.34 1.67 -0.32 1.34 -1 1 C-0.67 0.67 -0.34 0.34 0 0 Z " fill="#929C9E" transform="translate(120,143)"/>
<path d="" fill="#283032" transform="translate(0,0)"/>
</svg>
